<svg xmlns="http://www.w3.org/2000/svg" width="24.297" height="24.289"><g data-name="Group 3800" clip-path="url(&quot;#a&quot;)"><path d="M13.882 4.234v-.577c-.001-.89-.443-1.337-1.325-1.337H5.265c-.578 0-1.156-.005-1.734 0-.736.008-1.21.471-1.21 1.203-.003 4.977-.003 9.954 0 14.931 0 .724.48 1.208 1.21 1.21 3.045.005 6.09.006 9.134 0 .74-.002 1.212-.496 1.216-1.236.003-.414 0-.829 0-1.267.571-.1 1.126-.22 1.687-.283.179-.02.379.096.56.171.042.018.068.121.068.185.003 1.409.037 2.82-.01 4.227-.057 1.67-1.307 2.824-2.985 2.826-3.406.002-6.812.003-10.218 0-1.724-.002-2.98-1.253-2.98-2.972-.004-6.116-.004-12.231 0-18.347C.002 1.262 1.256.006 2.961.004c3.424-.005 6.848-.005 10.272 0 1.673.002 2.904 1.21 2.968 2.884.008.201-.052.286-.244.37-.698.306-1.38.645-2.076.976M8.08 22.553c.37 0 .741.003 1.112-.001.39-.005.637-.238.633-.587-.005-.34-.24-.56-.626-.562a154.17 154.17 0 0 0-2.195 0c-.387.002-.649.247-.641.582.008.338.267.563.66.567.352.003.705 0 1.057 0" fill="#3b4044" fill-rule="evenodd" data-name="Path 14228"/><path d="M3.481 18.478V3.49h9.248c0 .37-.025.748.006 1.121.044.518-.112.925-.415 1.362-1.472 2.12-1.706 4.41-.82 6.828a.942.942 0 0 1 .033.486c-.087.433-.218.857-.313 1.288-.23 1.051.29 2.063 1.285 2.469.19.077.233.175.228.357-.012.35-.004.702-.004 1.076H3.481Z" fill="#0a3b4b" fill-rule="evenodd" data-name="Path 14229"/><path d="M17.973 4.05c3.77.017 6.545 2.982 6.31 6.473-.273 4.052-4.357 6.703-8.164 5.279-.423-.159-.794-.065-1.188-.003-.446.07-.888.162-1.333.237-.849.143-1.426-.477-1.226-1.319.113-.473.23-.946.361-1.415.072-.257.05-.486-.06-.731a6.022 6.022 0 0 1 1.458-6.939c1.157-1.052 2.53-1.572 3.842-1.583m2.266 4.798c-.004-1.454-1.028-2.482-2.305-2.489-1.227-.006-2.287 1.012-2.314 2.224-.01.386.212.655.552.67.315.015.552-.212.596-.571l.016-.134c.089-.581.513-.988 1.06-1.018.577-.03 1.047.302 1.197.848.151.548-.09 1.084-.634 1.346-.741.358-1.084.942-1.057 1.758.014.391.23.653.565.662.347.01.594-.251.584-.66-.008-.358.128-.58.457-.745.842-.42 1.254-1.13 1.283-1.891m-2.323 5.63a.872.872 0 0 0 .883-.842.88.88 0 0 0-.867-.89.864.864 0 0 0-.862.86.856.856 0 0 0 .846.872" fill="#0a3b4b" fill-rule="evenodd" data-name="Path 14230"/></g><defs><clipPath id="a"><path d="M0 0h24.297v24.289H0V0z" data-name="Rectangle 2334"/></clipPath></defs></svg>