<svg xmlns="http://www.w3.org/2000/svg" width="22" height="20" viewBox="0 0 22 20">
  <path id="add_a_photo_FILL0_wght400_GRAD0_opsz24" d="M11,18.5A4.48,4.48,0,0,0,15.5,14,4.48,4.48,0,0,0,11,9.5,4.48,4.48,0,0,0,6.5,14,4.48,4.48,0,0,0,11,18.5ZM3,22a1.925,1.925,0,0,1-1.412-.587A1.927,1.927,0,0,1,1,20V8a1.923,1.923,0,0,1,.588-1.412A1.923,1.923,0,0,1,3,6H6.15L7.4,4.65a2.01,2.01,0,0,1,.662-.475A1.956,1.956,0,0,1,8.875,4H13a.981.981,0,0,1,1,1V8H3V20H19V11h1a1.038,1.038,0,0,1,.388.075.942.942,0,0,1,.537.537A1.038,1.038,0,0,1,21,12v8a2,2,0,0,1-2,2ZM19,6H18a.982.982,0,0,1-1-1,.982.982,0,0,1,1-1h1V3a1,1,0,1,1,2,0V4h1a.982.982,0,0,1,1,1,.982.982,0,0,1-1,1H21V7a1,1,0,1,1-2,0ZM3,8H3V20H3V8Z" transform="translate(-1 -2)" fill="#0a3b4b"/>
</svg>
