<svg width="19" height="18" viewBox="0 0 19 18" fill="none" xmlns="http://www.w3.org/2000/svg">
<path d="M18.3249 7.23735H17.6V7.2H9.5V10.8H14.5863C13.8443 12.8956 11.8503 14.4 9.5 14.4C6.51785 14.4 4.1 11.9821 4.1 8.99999C4.1 6.01785 6.51785 3.6 9.5 3.6C10.8765 3.6 12.1289 4.1193 13.0824 4.96755L15.6281 2.4219C14.0207 0.923849 11.8706 0 9.5 0C4.52975 0 0.5 4.02975 0.5 8.99999C0.5 13.9702 4.52975 18 9.5 18C14.4702 18 18.5 13.9702 18.5 8.99999C18.5 8.39654 18.4379 7.8075 18.3249 7.23735Z" fill="#FFC107"/>
<path d="M1.53769 4.81095L4.49464 6.97949C5.29474 4.9986 7.23244 3.6 9.49999 3.6C10.8765 3.6 12.1289 4.1193 13.0824 4.96755L15.6281 2.4219C14.0207 0.923849 11.8706 0 9.49999 0C6.04309 0 3.04519 1.95165 1.53769 4.81095Z" fill="#FF3D00"/>
<path d="M9.49997 17.9998C11.8247 17.9998 13.937 17.1101 15.534 15.6634L12.7485 13.3063C11.8146 14.0166 10.6733 14.4007 9.49997 14.3998C7.15907 14.3998 5.17142 12.9071 4.42262 10.8241L1.48772 13.0853C2.97722 16 6.00212 17.9998 9.49997 17.9998Z" fill="#4CAF50"/>
<path d="M18.3249 7.23755H17.6V7.2002H9.5V10.8002H14.5863C14.2314 11.7976 13.592 12.6691 12.7472 13.3071L12.7485 13.3062L15.534 15.6633C15.3369 15.8424 18.5 13.5002 18.5 9.00019C18.5 8.39674 18.4379 7.80769 18.3249 7.23755Z" fill="#1976D2"/>
</svg>
