<svg xmlns="http://www.w3.org/2000/svg" width="23.376" height="23.38" viewBox="27 320.667 23.376 23.38"><g data-name="Group 3791"><path d="M38.687 339.936h-2.625c-.54 0-.794-.253-.8-.796-.008-.986-.341-1.826-1.035-2.548-3.138-3.264-1.769-8.726 2.543-10.095 2.975-.946 6.08.359 7.465 3.168 1.104 2.239.705 4.98-.987 6.826-.509.555-.93 1.145-1.058 1.902a6.642 6.642 0 0 0-.076.815c-.02.451-.282.725-.733.727-.898.004-1.796.001-2.694.001m.683-10.33c-.005-.374-.304-.663-.693-.674-1.498-.042-2.935 1.057-3.3 2.52a.685.685 0 0 0 .434.807c.368.128.74-.05.874-.439.119-.342.265-.662.527-.92.406-.4.901-.573 1.462-.6.418-.02.702-.312.696-.694" fill="#0a3b4b" fill-rule="evenodd" data-name="Path 14206"/><g data-name="Group 3790"><path d="M37.774 344.047c-.32-.129-.67-.211-.955-.396-.508-.33-.794-.831-.846-1.441-.025-.292-.004-.587-.004-.892h5.446c.043.726.023 1.422-.487 2.004-.322.367-.72.598-1.2.686-.043.008-.085.026-.128.039h-1.826Z" fill="#3b4044" fill-rule="evenodd" data-name="Path 14204"/><path d="M50.376 332.538c-.182.395-.495.52-.919.509-.843-.021-1.686 0-2.53-.009-.508-.005-.836-.474-.656-.926.108-.273.319-.433.61-.436a205.03 205.03 0 0 1 2.827-.002c.34.001.524.227.668.499v.365Z" fill="#3b4044" fill-rule="evenodd" data-name="Path 14205"/><path d="M39.372 322.745c0 .441.002.883 0 1.324-.004.444-.288.751-.687.75-.399-.001-.68-.309-.682-.754a422 422 0 0 1 0-2.648c.002-.444.287-.752.686-.75.399 0 .68.308.682.754.003.441 0 .883 0 1.324" fill="#3b4044" fill-rule="evenodd" data-name="Path 14207"/><path d="M29.076 333.04c-.441 0-.883.003-1.324 0-.445-.003-.752-.285-.752-.684 0-.399.307-.683.752-.684a423.02 423.02 0 0 1 2.647 0c.445.001.752.285.752.684 0 .399-.307.681-.751.684-.442.003-.883 0-1.324 0" fill="#3b4044" fill-rule="evenodd" data-name="Path 14208"/><path d="M33.568 326.465c-.028.366-.153.582-.414.698a.638.638 0 0 1-.74-.121c-.267-.25-.52-.512-.78-.77-.387-.387-.776-.773-1.16-1.163-.204-.207-.276-.456-.176-.734.093-.257.287-.438.558-.434.189.003.425.064.556.188a62.407 62.407 0 0 1 1.954 1.95c.113.117.158.3.202.386" fill="#3b4044" fill-rule="evenodd" data-name="Path 14209"/><path d="M46.347 323.915c.353.022.568.133.693.38.129.255.109.507-.07.727-.134.165-.292.31-.442.461-.51.511-1.021 1.023-1.535 1.531-.208.206-.46.27-.734.167a.654.654 0 0 1-.435-.543.635.635 0 0 1 .182-.565c.648-.654 1.295-1.309 1.955-1.95.117-.114.298-.162.386-.208" fill="#3b4044" fill-rule="evenodd" data-name="Path 14210"/></g></g></svg>