<svg xmlns="http://www.w3.org/2000/svg" width="20.767" height="17.298"><g data-name="Group 3802" clip-path="url(&quot;#a&quot;)"><path d="M20.767 8.325v6.894c-.011.031-.028.062-.034.094-.247 1.218-1.167 1.983-2.406 1.983-5.29.003-10.581.003-15.872 0-1.427 0-2.45-1.03-2.45-2.457V8.326c.075.022.127.035.177.052 3.13 1.042 6.261 2.079 9.387 3.132a2.456 2.456 0 0 0 1.64.001c3.183-1.07 6.371-2.125 9.558-3.186" fill="#3b4044" fill-rule="evenodd" data-name="Path 14231"/><path d="M20.767 6.946c-1.24.417-2.48.836-3.722 1.25-2.092.699-4.187 1.392-6.278 2.095a1.135 1.135 0 0 1-.766-.003A2409.467 2409.467 0 0 0 .227 7.033c-.185-.061-.23-.144-.227-.326.012-.56.004-1.122.005-1.683.003-1.385 1.03-2.42 2.42-2.426 1.412-.005 2.825 0 4.238 0h.268c0-.317-.007-.612.001-.907A1.707 1.707 0 0 1 8.311.037a1.88 1.88 0 0 1 .382-.034c1.129-.002 2.258-.006 3.386 0 .88.006 1.556.551 1.73 1.387.03.144.03.295.033.443.005.243.001.486.001.764h.247c1.385 0 2.771.025 4.156-.007 1.386-.031 2.347.965 2.491 2.01.004.027.02.05.03.075v2.271ZM8.663 2.582h3.443v-.838H8.663v.838Z" fill="#0a3b4b" fill-rule="evenodd" data-name="Path 14232"/></g><defs><clipPath id="a"><path d="M0 0h20.767v17.298H0V0z" data-name="Rectangle 2335"/></clipPath></defs></svg>