<svg id="Location" xmlns="http://www.w3.org/2000/svg" width="24" height="24" viewBox="0 0 24 24">
  <path id="Path_13949" data-name="Path 13949" d="M0,0H24V24H0Z" fill="none"/>
  <path id="person_pin_circle_FILL0_wght400_GRAD0_opsz24" d="M12,15a4.743,4.743,0,0,0,2.525-.688A5.062,5.062,0,0,0,16.3,12.5a6.41,6.41,0,0,0-1.975-1.113,7.178,7.178,0,0,0-4.65,0A6.41,6.41,0,0,0,7.7,12.5a5.062,5.062,0,0,0,1.775,1.812A4.743,4.743,0,0,0,12,15Zm0-5a2.006,2.006,0,0,0,2-2,2,2,0,0,0-3.412-1.412,1.989,1.989,0,0,0,0,2.824A1.923,1.923,0,0,0,12,10Zm0,9.35a27.509,27.509,0,0,0,4.525-5.088A7.762,7.762,0,0,0,18,10.2a6.042,6.042,0,0,0-1.738-4.463A5.8,5.8,0,0,0,12,4,5.8,5.8,0,0,0,7.737,5.737,6.044,6.044,0,0,0,6,10.2a7.762,7.762,0,0,0,1.475,4.062A27.509,27.509,0,0,0,12,19.35Zm0,2.275a1.132,1.132,0,0,1-.4-.075,1.2,1.2,0,0,1-.35-.2A30.86,30.86,0,0,1,5.8,15.363,9.591,9.591,0,0,1,4,10.2,7.733,7.733,0,0,1,6.413,4.225a8.127,8.127,0,0,1,11.174,0A7.733,7.733,0,0,1,20,10.2a9.591,9.591,0,0,1-1.8,5.163,30.86,30.86,0,0,1-5.45,5.987,1.2,1.2,0,0,1-.35.2A1.132,1.132,0,0,1,12,21.625ZM12,10.2Z" fill="#3b4044"/>
</svg>
