<svg xmlns="http://www.w3.org/2000/svg" width="16" height="20" viewBox="0 0 16 20">
  <path id="home_pin_FILL0_wght400_GRAD0_opsz24" d="M9,13V8l3-2,3,2v5H13V10H11v3Zm3,6.35a27.509,27.509,0,0,0,4.525-5.088A7.762,7.762,0,0,0,18,10.2a6.042,6.042,0,0,0-1.738-4.463A5.8,5.8,0,0,0,12,4,5.8,5.8,0,0,0,7.737,5.737,6.044,6.044,0,0,0,6,10.2a7.762,7.762,0,0,0,1.475,4.062A27.509,27.509,0,0,0,12,19.35ZM12,22a33.219,33.219,0,0,1-6.012-6.363A9.89,9.89,0,0,1,4,10.2,7.733,7.733,0,0,1,6.413,4.225a8.127,8.127,0,0,1,11.174,0A7.733,7.733,0,0,1,20,10.2a9.894,9.894,0,0,1-1.987,5.437A33.25,33.25,0,0,1,12,22Z" transform="translate(-4 -2)" fill="#3b4044"/>
</svg>
