<svg xmlns="http://www.w3.org/2000/svg" width="30.077" height="24.289" viewBox="201 320.667 30.077 24.289"><g data-name="Group 3798"><g data-name="Group 3797" transform="translate(201 320.667)" clip-path="url(&quot;#a&quot;)"><path d="M0 7.032c.108-.003.215-.007.323-.007h29.754V17.25c-.082.006-.166.018-.25.018H.176c-.059 0-.117-.004-.176-.007V7.031m14.054 1.857c0 .08-.01.14.001.195.389 1.967.777 3.934 1.177 5.9.015.074.145.17.227.177.263.02.53-.015.792.005.23.018.322-.067.382-.283.283-1.018.582-2.03.876-3.045.023-.077.052-.153.097-.285.335 1.16.656 2.257.966 3.358.052.186.118.283.336.261.252-.026.51-.024.762-.007.212.015.283-.066.322-.268.3-1.546.613-3.09.92-4.634.09-.447.173-.895.263-1.36l-1.32-.257-.66 3.286-.066.002-.911-3.14c-.346 0-.669.01-.99-.004-.19-.008-.27.052-.322.24-.254.915-.525 1.823-.791 2.734-.02.068-.05.133-.098.254l-.673-3.384-1.29.255m-4.828 6.245V8.737H7.874v3.596a1.261 1.261 0 0 1-.256-.317C6.973 10.988 6.33 9.96 5.68 8.936c-.052-.083-.142-.195-.22-.2-.387-.02-.775-.009-1.163-.009v6.463h1.34V11.51c.118.088.181.185.242.282.656 1.044 1.31 2.09 1.971 3.13.056.088.162.197.25.203.368.023.739.01 1.127.01m2.192-2.508h1.96v-1.36h-1.95v-1.191h2.116V8.753h-3.47v6.412h3.469v-1.333h-2.125v-1.206ZM25.43 9.38c-.26-.147-.48-.296-.719-.4-.813-.351-1.636-.404-2.421.064-.592.353-.897.9-.856 1.596.041.71.406 1.205 1.076 1.469.491.193.983.385 1.465.6.248.11.53.243.478.587-.049.323-.316.45-.602.525-.093.024-.194.03-.29.029-.482-.008-.893-.192-1.255-.53l-1.001.908c.16.138.291.267.438.376.969.724 2.323.801 3.22.19 1.131-.773 1.15-2.273.028-3.058a3.81 3.81 0 0 0-.673-.353c-.42-.183-.854-.338-1.272-.527-.107-.048-.249-.183-.245-.274.005-.132.095-.317.205-.375.171-.091.398-.15.585-.121.33.05.647.18 1.005.286l.834-.992" fill="#0a3b4b" fill-rule="evenodd" data-name="Path 14221"/><g data-name="Group 3799"><path d="M11.69 5.24A17.125 17.125 0 0 1 15.048.183a17.088 17.088 0 0 1 3.358 5.059H11.69Z" fill="#3b4044" fill-rule="evenodd" data-name="Path 14222"/><path d="M11.689 19.047h6.683c-.273 1.118-2.316 4.207-3.342 5.045a17.053 17.053 0 0 1-3.341-5.045" fill="#3b4044" fill-rule="evenodd" data-name="Path 14223"/><path d="M25.3 5.26h-1.954c-.93 0-1.86-.002-2.79.003-.152.001-.247-.026-.311-.189a18.673 18.673 0 0 0-2.853-4.9C17.363.14 17.346.098 17.29 0c3.385.69 6.007 2.425 8.01 5.26" fill="#3b4044" fill-rule="evenodd" data-name="Path 14224"/><path d="M17.34 24.25c.488-.711 1.017-1.384 1.436-2.118.531-.932.976-1.913 1.454-2.875.063-.128.103-.23.285-.229 1.566.008 3.132.005 4.7.005-.495 1.847-5.4 5.094-7.874 5.217" fill="#3b4044" fill-rule="evenodd" data-name="Path 14225"/><path d="M4.81 5.24C6.803 2.423 9.427.692 12.785.067c-.154.2-.31.396-.46.597a18.744 18.744 0 0 0-2.445 4.331c-.058.147-.096.273-.314.272-1.527-.012-3.054-.007-4.581-.007-.037 0-.073-.008-.173-.02" fill="#3b4044" fill-rule="evenodd" data-name="Path 14226"/><path d="M4.795 19.033H6.28c1.087 0 2.173.002 3.26-.003.153 0 .248.026.312.189a18.674 18.674 0 0 0 2.872 4.922c.023.028.035.065.078.148-3.376-.685-5.998-2.422-8.006-5.256" fill="#3b4044" fill-rule="evenodd" data-name="Path 14227"/></g></g></g><defs><clipPath id="a"><path d="M0 0h30.077v24.29H0V0z" data-name="Rectangle 2333"/></clipPath></defs></svg>