<svg xmlns="http://www.w3.org/2000/svg" width="146.92" height="174.621" viewBox="0 0 36.73 43.655"><path d="M12.978 19.552c.073.911.261 1.627.8 2.305.712.892 1.258 1.916 1.798 2.762-.786.853-1.524 1.714-2.326 2.51A190.72 190.72 0 0 1 9.2 31.01c-.328.308-.238.498.028.766 1.776 1.79 3.54 3.592 5.312 5.384a520.696 520.696 0 0 0 3.258 3.26c.491.487.621.491 1.11.007 2.1-2.08 4.188-4.171 6.296-6.242.276-.272.615-.538.974-.651.579-.184 1.162.11 1.466.602.322.52.287 1.135-.14 1.626-.362.414-.76.797-1.151 1.186a1937.83 1937.83 0 0 1-5.593 5.522c-.201.197-.442.356-.674.52-1.226.871-2.316.918-3.483-.044-1.181-.974-2.289-2.045-3.372-3.13-2.113-2.113-4.189-4.262-6.272-6.406a8.828 8.828 0 0 1-.863-1.036c-.452-.636-.481-1.305-.016-1.952.232-.323.478-.646.761-.924 1.713-1.684 3.437-3.356 5.098-4.973-.653-1.404-1.289-2.81-1.961-4.197-.54-1.114-.59-2.25-.206-3.401.552-1.662 1.064-3.35 2.364-4.632 1.043-1.028 2.19-1.971 3.558-2.461 1.986-.712 4.015-.765 5.937.349 1.95 1.13 3.639 2.525 4.42 4.72.437 1.228.973 2.447.909 3.81-.067 1.414-.625 2.645-1.316 3.834-.285.49-.611.958-.88 1.457-.07.131-.072.414.018.502 1.586 1.553 3.191 3.087 4.793 4.624.022.02.06.025.162.066.254-.335.52-.689.788-1.04 1.694-2.23 2.862-4.701 3.269-7.481.657-4.492-.428-8.545-3.292-12.077-2.49-3.073-5.695-5.046-9.613-5.65C13.267 1.768 5.315 6.152 3.21 14.71c-.985 4.004-.448 7.803 1.62 11.379.109.187.207.382.289.581.328.807.138 1.436-.534 1.794-.694.372-1.386.2-1.858-.53-.948-1.466-1.69-3.039-2.099-4.735-1.56-6.471-.23-12.286 4.216-17.266C7.821 2.6 11.634.682 16.071.152c6.475-.774 11.874 1.415 16.206 6.23 2.407 2.676 3.81 5.86 4.273 9.423.626 4.814-.362 9.254-3.275 13.201-1.068 1.45-2.149 2.889-3.264 4.386l-2.092-1.998c-2.147-2.055-4.3-4.102-6.436-6.169-.699-.676-.625-.446-.142-1.198.514-.8 1.06-1.58 1.579-2.377.395-.607.656-1.26.602-2.082-3.52.362-7.005.37-10.544-.016m2.429-6.126c-1.606.43-3.423 3.811-3.005 5.58 3.903.768 7.83.305 11.798.1 0-.224.017-.373-.003-.517-.222-1.559-.72-3.015-1.707-4.261-.252-.318-.61-.56-.943-.805-.247-.18-.435-.166-.526.212-.166.689-.387 1.364-.585 2.044-.018-.81.088-1.597.151-2.388.047-.58-.17-.877-.727-1.025-.963-.258-1.933-.322-2.913-.067-.955.247-1.137.545-.974 1.497.145.85.24 1.708.357 2.563l-.068.011c-.282-.97-.565-1.941-.855-2.944" fill="#f16228" fill-rule="evenodd" data-name="Path 306"/></svg>