<svg xmlns="http://www.w3.org/2000/svg" xmlns:xlink="http://www.w3.org/1999/xlink" width="98.852" height="124.273" viewBox="0 0 98.852 124.273">
  <defs>
    <clipPath id="clip-path">
      <rect id="Rectangle_6811" data-name="Rectangle 6811" width="44.744" height="32.49" fill="none"/>
    </clipPath>
  </defs>
  <g id="Group_11406" data-name="Group 11406" transform="translate(-97.114 -187.964)">
    <g id="Group_11405" data-name="Group 11405" transform="translate(97.114 187.964)">
      <path id="Path_30960" data-name="Path 30960" d="M64.632,26.117a24.066,24.066,0,0,1-24.32,26.118A28.41,28.41,0,0,1,12.4,26.117,24.065,24.065,0,0,1,36.716,0,28.411,28.411,0,0,1,64.632,26.117" transform="translate(2.973 0.001)" fill="#0a3b4b"/>
      <path id="Path_30961" data-name="Path 30961" d="M39.136,47.216A23.8,23.8,0,0,1,15.783,25.369,20.271,20.271,0,0,1,36.256,3.386,23.794,23.794,0,0,1,59.608,25.233,20.271,20.271,0,0,1,39.136,47.216M36.256,5.374A18.285,18.285,0,0,0,17.767,25.233a21.776,21.776,0,0,0,21.37,19.994A18.285,18.285,0,0,0,57.625,25.369,21.776,21.776,0,0,0,36.256,5.374" transform="translate(3.792 0.818)" fill="#fff"/>
      <path id="Path_30962" data-name="Path 30962" d="M21.673,21.838s9.143,4.938,13.414,11.3c2.311-4.964,5.828-11.869,15.352-19.627-12.08,5.116-15.79,13.261-15.79,13.261a26.081,26.081,0,0,0-12.976-4.932" transform="translate(5.225 3.257)" fill="#fff"/>
      <g id="Group_11403" data-name="Group 11403" transform="translate(0 0.001)">
        <path id="Path_30954" data-name="Path 30954" d="M78.584,88.045H14.852a8.089,8.089,0,0,1-7.883-6.71L.106,40.455a7.289,7.289,0,0,1,1.582-5.937A7.193,7.193,0,0,1,7.2,32H79.03a8.07,8.07,0,0,1,7.987,8.2L85.782,81.083a7.157,7.157,0,0,1-7.2,6.962M7.2,35.724a3.433,3.433,0,0,0-2.672,1.2,3.528,3.528,0,0,0-.752,2.915l6.863,40.88a4.385,4.385,0,0,0,4.211,3.6H78.584a3.41,3.41,0,0,0,3.476-3.351L83.3,40.091a4.236,4.236,0,0,0-1.222-3.043,4.29,4.29,0,0,0-3.043-1.324Z" transform="translate(0 7.714)" fill="#fff"/>
        <path id="Path_30957" data-name="Path 30957" d="M27.149,104.548a12.313,12.313,0,0,1-12.084-11.3A10.532,10.532,0,0,1,25.7,81.826,12.313,12.313,0,0,1,37.781,93.132a10.532,10.532,0,0,1-10.632,11.416M25.7,83.451a8.909,8.909,0,0,0-9.014,9.681,10.665,10.665,0,0,0,10.466,9.792,8.909,8.909,0,0,0,9.014-9.68A10.665,10.665,0,0,0,25.7,83.451" transform="translate(3.625 19.724)" fill="#fff"/>
        <g id="Group_11404" data-name="Group 11404" transform="translate(1.86 24.717)">
          <path id="Path_30953" data-name="Path 30953" d="M78.223,85.823H14.49a6.233,6.233,0,0,1-6.048-5.157L1.58,39.786A5.29,5.29,0,0,1,6.841,33.5H78.669a6.208,6.208,0,0,1,6.126,6.285L83.561,80.667a5.259,5.259,0,0,1-5.338,5.157" transform="translate(-1.498 -16.642)" fill="#f05b20"/>
          <path id="Path_30955" data-name="Path 30955" d="M67.985,85.8h-.057a1.862,1.862,0,0,1-1.806-1.916L68,21.722a1.861,1.861,0,0,1,2.92-1.474L82.111,27.99a1.862,1.862,0,1,1-2.118,3.062l-8.376-5.794L69.844,84A1.862,1.862,0,0,1,67.985,85.8" transform="translate(14.079 -19.916)" fill="#f05b20"/>
          <path id="Path_30956" data-name="Path 30956" d="M36.815,93.03a9.72,9.72,0,0,1-9.823,10.549A11.476,11.476,0,0,1,15.717,93.03,9.72,9.72,0,0,1,25.54,82.481,11.476,11.476,0,0,1,36.815,93.03" transform="translate(1.923 -4.835)" fill="#f05b20"/>
          <path id="Path_30958" data-name="Path 30958" d="M64.879,93.03a9.72,9.72,0,0,1-9.823,10.549A11.476,11.476,0,0,1,43.781,93.03,9.72,9.72,0,0,1,53.6,82.481,11.476,11.476,0,0,1,64.879,93.03" transform="translate(8.687 -4.835)" fill="#f05b20"/>
        </g>
        <path id="Path_30959" data-name="Path 30959" d="M55.213,104.548a12.314,12.314,0,0,1-12.084-11.3A10.533,10.533,0,0,1,53.761,81.826,12.315,12.315,0,0,1,65.847,93.132a10.532,10.532,0,0,1-10.633,11.416m-1.452-21.1a8.907,8.907,0,0,0-9.012,9.681,10.664,10.664,0,0,0,10.465,9.792,8.907,8.907,0,0,0,9.014-9.68,10.664,10.664,0,0,0-10.466-9.793" transform="translate(10.39 19.724)" fill="#fff"/>
        <rect id="Rectangle_6812" data-name="Rectangle 6812" width="98.852" height="124.272" transform="translate(0)" fill="none"/>
      </g>
    </g>
    <g id="Group_11402" data-name="Group 11402" transform="translate(120.906 239.979)">
      <g id="Group_11401" data-name="Group 11401" transform="translate(0 0)" clip-path="url(#clip-path)">
        <path id="Path_30940" data-name="Path 30940" d="M36.248,5.98,29.966,7.623,16.382,19.816,29.909,31.087l11.47-10.328a8.427,8.427,0,0,0,2.729-6.121h0l4.908-2.65a3.685,3.685,0,0,0,.859-5.681L46.168,1.9a3.831,3.831,0,0,0-5.687-.385Z" transform="translate(-6.35 -0.164)" fill="#0a3b4b"/>
        <path id="Path_30941" data-name="Path 30941" d="M29.666,31.265,15.737,19.659,29.65,7.208l6.211-1.624L40.043,1.17A3.756,3.756,0,0,1,42.935,0a4.342,4.342,0,0,1,3.181,1.565l3.707,4.408a4.191,4.191,0,0,1,.95,3.484,3.714,3.714,0,0,1-1.884,2.59l-4.777,2.579a8.624,8.624,0,0,1-2.81,6.156ZM16.527,19.644,29.653,30.58,40.956,20.4A8.126,8.126,0,0,0,43.6,14.468l0-.151,5.041-2.723a3.159,3.159,0,0,0,1.622-2.232,3.677,3.677,0,0,0-.838-3.055L45.72,1.9a3.825,3.825,0,0,0-2.8-1.38,3.236,3.236,0,0,0-2.5,1.006L36.135,6.047,29.841,7.693Z" transform="translate(-6.1 0)" fill="#fff"/>
        <path id="Path_30942" data-name="Path 30942" d="M36.785,20.442,36,19.816,23.3,9.671a15.026,15.026,0,0,0-5.69-2.837L14.224,5.98,9.376,1.513A3.749,3.749,0,0,0,3.742,1.9L.642,6.305a3.936,3.936,0,0,0,1.641,5.681l5.273,2.65h0a9.883,9.883,0,0,0,3.572,6.121L24.02,31.087l.007-.006,1.026.825a2.069,2.069,0,0,0,2.988-.315,2.223,2.223,0,0,0-.585-2.971l1.273,1.01a2.18,2.18,0,0,0,2.683.126,2.105,2.105,0,0,0-.135-3.3l.712.565a2.181,2.181,0,0,0,2.684.126,2.105,2.105,0,0,0-.135-3.3l-.157-.125a2.069,2.069,0,0,0,2.988-.315,2.223,2.223,0,0,0-.585-2.971" transform="translate(0 -0.164)" fill="#fff"/>
        <path id="Path_30943" data-name="Path 30943" d="M40.679,15.5A9.855,9.855,0,0,1,35.7,17.351a6.446,6.446,0,0,0-3.943,1.4c-1.818,1.834-5.49,2.909-6.366,1.012C24.95,18.8,28.265,16.649,30,13.176c1.218-2.437,5.122-3.3,9.725-3.679" transform="translate(-9.827 -3.681)" fill="#0a3b4b"/>
        <path id="Path_30944" data-name="Path 30944" d="M27.146,20.834a3.362,3.362,0,0,1-.582-.048,1.913,1.913,0,0,1-1.493-1.07c-.275-.6.418-1.359,1.466-2.516a19.152,19.152,0,0,0,3.145-4.25c1.375-2.752,6.01-3.473,9.894-3.793l.034.415c-3.775.312-8.274,1-9.556,3.565a19.515,19.515,0,0,1-3.208,4.343c-.835.921-1.556,1.716-1.4,2.061a1.5,1.5,0,0,0,1.187.834,6.391,6.391,0,0,0,4.842-1.906,6.569,6.569,0,0,1,4.089-1.459,9.732,9.732,0,0,0,4.846-1.805l.265.321a9.982,9.982,0,0,1-5.09,1.9c-.043,0-2.528.039-3.814,1.336a7.165,7.165,0,0,1-4.628,2.071" transform="translate(-9.695 -3.55)" fill="#fff"/>
        <path id="Path_30945" data-name="Path 30945" d="M17.636,34.975l2.045-1.821a2.182,2.182,0,0,0-2.927-3.224l-2.045,1.822a2.182,2.182,0,0,0,2.927,3.223" transform="translate(-5.451 -11.411)" fill="#0a3b4b"/>
        <path id="Path_30946" data-name="Path 30946" d="M16.155,35.562a2.54,2.54,0,0,1-2.513-2.491,2.188,2.188,0,0,1,.732-1.675l2.045-1.821a2.374,2.374,0,0,1,3.124.063,2.506,2.506,0,0,1,.878,1.871,2.189,2.189,0,0,1-.732,1.675l-2.045,1.822a2.227,2.227,0,0,1-1.49.555m1.754-6.026a1.71,1.71,0,0,0-1.146.426l-2.045,1.821a1.678,1.678,0,0,0-.559,1.285,1.988,1.988,0,0,0,.7,1.484,1.856,1.856,0,0,0,2.442.068L19.346,32.8a1.679,1.679,0,0,0,.559-1.285,2.026,2.026,0,0,0-2-1.977" transform="translate(-5.288 -11.249)" fill="#fff"/>
        <path id="Path_30947" data-name="Path 30947" d="M22.187,40.2,24.659,38a2.093,2.093,0,0,0-.026-3.048,2.123,2.123,0,0,0-2.9-.175l-2.472,2.2A2.182,2.182,0,0,0,22.187,40.2" transform="translate(-7.216 -13.29)" fill="#0a3b4b"/>
        <path id="Path_30948" data-name="Path 30948" d="M20.7,40.787A2.541,2.541,0,0,1,18.192,38.3a2.191,2.191,0,0,1,.732-1.675l2.472-2.2a2.384,2.384,0,0,1,3.255.185,2.5,2.5,0,0,1,.746,1.83,2.191,2.191,0,0,1-.731,1.6l-2.472,2.2a2.232,2.232,0,0,1-1.491.555m2.181-6.407a1.707,1.707,0,0,0-1.146.427l-2.472,2.2a1.676,1.676,0,0,0-.559,1.285,1.989,1.989,0,0,0,.7,1.484,1.858,1.858,0,0,0,2.442.068l2.472-2.2a1.678,1.678,0,0,0,.558-1.223,2.024,2.024,0,0,0-2-2.041" transform="translate(-7.052 -13.127)" fill="#fff"/>
        <path id="Path_30949" data-name="Path 30949" d="M28.1,44.7l2.045-1.821a2.182,2.182,0,0,0-2.927-3.224l-2.045,1.822A2.182,2.182,0,0,0,28.1,44.7" transform="translate(-9.507 -15.18)" fill="#0a3b4b"/>
        <path id="Path_30950" data-name="Path 30950" d="M26.617,45.284a2.54,2.54,0,0,1-2.513-2.49,2.188,2.188,0,0,1,.732-1.675L26.881,39.3a2.375,2.375,0,0,1,3.124.063,2.508,2.508,0,0,1,.878,1.871,2.19,2.19,0,0,1-.732,1.675l-2.045,1.821a2.227,2.227,0,0,1-1.49.555m1.754-6.026a1.71,1.71,0,0,0-1.146.426L25.18,41.5a1.678,1.678,0,0,0-.559,1.286,1.99,1.99,0,0,0,.7,1.483,1.855,1.855,0,0,0,2.442.068l2.045-1.821a1.678,1.678,0,0,0,.559-1.285,2.026,2.026,0,0,0-2-1.977" transform="translate(-9.343 -15.017)" fill="#fff"/>
        <path id="Path_30951" data-name="Path 30951" d="M34.709,48.288l2.116-1.914a2.171,2.171,0,0,0-2.922-3.2l-2.121,1.889a2.182,2.182,0,0,0,2.927,3.223" transform="translate(-12.069 -16.547)" fill="#0a3b4b"/>
        <path id="Path_30952" data-name="Path 30952" d="M33.227,48.873a2.539,2.539,0,0,1-2.513-2.489,2.191,2.191,0,0,1,.732-1.675l2.121-1.889A2.352,2.352,0,0,1,36.58,42.8a2.5,2.5,0,0,1,.97,1.877,2.213,2.213,0,0,1-.715,1.723l-2.118,1.915a2.227,2.227,0,0,1-1.49.555m1.824-6.091a1.7,1.7,0,0,0-1.14.424L31.79,45.1a1.681,1.681,0,0,0-.559,1.285,1.992,1.992,0,0,0,.7,1.484,1.856,1.856,0,0,0,2.442.068l2.115-1.913a1.67,1.67,0,0,0,.546-1.321,1.988,1.988,0,0,0-.772-1.489,1.964,1.964,0,0,0-1.211-.427" transform="translate(-11.906 -16.384)" fill="#fff"/>
      </g>
    </g>
  </g>
</svg>
