<svg xmlns="http://www.w3.org/2000/svg" width="22.385" height="24.289"><g data-name="Group 3792" clip-path="url(&quot;#a&quot;)"><path d="M5.946 5.588C5.85 3.36 7.293 1.247 9.652.61c.08-.496.215-.609.724-.609.609 0 1.217-.002 1.826 0 .374.003.53.15.617.517.019.08.123.17.207.199 1.631.56 2.706 1.667 3.197 3.313.145.487.173 1.009.263 1.566-.02-.008.028.012.077.029.36.122.56.401.545.759a.743.743 0 0 1-.614.707c-.376.069-.76.103-1.142.136-2.326.2-4.655.26-6.986.09-.729-.053-1.455-.124-2.183-.182-.502-.04-.817-.275-.882-.669-.067-.403.136-.68.645-.878m5.095.835c.958-.054 1.78-.095 2.601-.148a23.22 23.22 0 0 0 1.145-.107c.288-.032.466-.235.444-.48-.024-.26-.216-.42-.506-.413-.13.003-.26.024-.391.031-1.148.062-2.297.173-3.445.17-1.063-.003-2.126-.132-3.19-.199-.316-.02-.518.138-.542.4-.023.255.164.468.464.492 1.184.092 2.368.177 3.42.254M7.01 4.6c.065-.067.22-.172.3-.318.154-.284.264-.592.395-.89.106-.241.036-.484-.177-.603-.203-.113-.472-.07-.586.147-.187.36-.354.736-.483 1.121-.092.277.155.55.55.543m1.757-2.454a.461.461 0 0 0-.446-.453c-.264-.002-.655.346-.664.59a.454.454 0 0 0 .428.467c.28.012.677-.34.682-.604" fill="#3b4044" fill-rule="evenodd" data-name="Path 14212"/><g data-name="Group 3794"><path d="M14.23 13.753c.035.38.078.748.102 1.119.01.143.053.224.2.25.092.016.178.06.266.089.672.218.672.218.672.935v4.959H6.943c-.005-.078-.015-.158-.015-.24 0-1.721.003-3.444-.006-5.166 0-.206.061-.3.259-.348.245-.059.48-.159.723-.22.155-.04.206-.113.213-.27.015-.333.055-.665.086-1.01 2.05 1.489 4.034 1.143 6.026-.098" fill="#0a3b4b" fill-rule="evenodd" data-name="Path 14211"/><path d="M16.574 7.988c-.088.63-.352 1.125-.803 1.505-.18.151-.252.32-.303.536-.272 1.161-.807 2.18-1.75 2.931-2.043 1.63-4.48 1.216-5.89-.977a6.21 6.21 0 0 1-.857-2.06.63.63 0 0 0-.226-.323c-.51-.4-.828-.902-.919-1.603 3.584.422 7.145.424 10.748-.009" fill="#0a3b4b" fill-rule="evenodd" data-name="Path 14213"/><path d="M22.377 24.29H18.63v-3.152h-.892v-4.89l2.128 1.041c.033.017.063.04.097.057.964.472 1.524 1.235 1.77 2.285.349 1.481.532 2.981.652 4.493.004.046-.003.092-.007.165" fill="#0a3b4b" fill-rule="evenodd" data-name="Path 14214"/><path d="M4.663 21.13h-.876v3.15H0c.042-.418.062-.835.13-1.245.193-1.151.395-2.302.614-3.448.208-1.083.812-1.869 1.817-2.343.69-.326 1.374-.663 2.102-1.016v4.902Z" fill="#0a3b4b" fill-rule="evenodd" data-name="Path 14215"/></g><path d="M5.803 22.018c.224 0 .448-.007.672.002.255.01.43.18.446.414a.44.44 0 0 1-.419.472c-.466.018-.933.018-1.4 0a.44.44 0 0 1-.416-.472c.015-.235.19-.403.445-.414.224-.009.448-.002.672-.002" fill="#3b4044" fill-rule="evenodd" data-name="Path 14216"/><path d="M16.592 22.915c-.215 0-.43.008-.644-.002-.282-.013-.473-.204-.472-.453 0-.255.188-.436.476-.44.429-.007.858-.007 1.288 0 .285.004.473.19.472.444 0 .238-.182.43-.448.447-.224.014-.448.003-.672.003" fill="#3b4044" fill-rule="evenodd" data-name="Path 14217"/></g><defs><clipPath id="a"><path d="M0 0h22.385v24.29H0V0z" data-name="Rectangle 2331"/></clipPath></defs></svg>