<svg xmlns="http://www.w3.org/2000/svg" width="18.4" height="16.655" viewBox="0 0 18.4 16.655">
  <path id="Path_14239" data-name="Path 14239" d="M19,12h1.7a.5.5,0,0,0,.33-.87L12.67,3.6a1.008,1.008,0,0,0-1.34,0L2.97,11.13A.5.5,0,0,0,3.3,12H5v3H4a1,1,0,0,0-1,1H3a1,1,0,0,0,1,1H5v2a1,1,0,0,0,1,1H6a1,1,0,0,0,1-1V17h4v2a1,1,0,0,0,1,1h0a1,1,0,0,0,1-1V17h4v2a1,1,0,0,0,1,1h0a1,1,0,0,0,1-1V17h1a1,1,0,0,0,1-1h0a1,1,0,0,0-1-1H19ZM7,15V10.19l4-3.6V15Zm6,0V6.59l4,3.6V15Z" transform="translate(-2.802 -3.345)" fill="#0a3b4b"/>
</svg>
