<svg id="preview_FILL0_wght400_GRAD0_opsz24_1_" data-name="preview_FILL0_wght400_GRAD0_opsz24 (1)" xmlns="http://www.w3.org/2000/svg" width="18" height="18" viewBox="0 0 18 18">
  <path id="preview_FILL0_wght400_GRAD0_opsz24_1_2" data-name="preview_FILL0_wght400_GRAD0_opsz24 (1)" d="M5,21a2,2,0,0,1-2-2V5A2,2,0,0,1,5,3H19a2,2,0,0,1,2,2V19a2,2,0,0,1-2,2Zm0-2H19V7H5Zm7-2a6.291,6.291,0,0,1-3.662-1.113A6.37,6.37,0,0,1,6,13a6.37,6.37,0,0,1,2.338-2.887A6.291,6.291,0,0,1,12,9a6.3,6.3,0,0,1,3.663,1.113A6.372,6.372,0,0,1,18,13a6.372,6.372,0,0,1-2.337,2.887A6.3,6.3,0,0,1,12,17Zm0-1.5a5.014,5.014,0,0,0,2.55-.663A4.707,4.707,0,0,0,16.35,13a4.715,4.715,0,0,0-1.8-1.838,5.242,5.242,0,0,0-5.1,0A4.715,4.715,0,0,0,7.65,13a4.707,4.707,0,0,0,1.8,1.837A5.014,5.014,0,0,0,12,15.5Zm0-1a1.5,1.5,0,1,1,1.062-.438A1.444,1.444,0,0,1,12,14.5Z" transform="translate(-3 -3)" fill="#3b4044"/>
</svg>
