<svg xmlns="http://www.w3.org/2000/svg" width="21.828" height="21.853" viewBox="148 321.885 21.828 21.853"><g data-name="Group 3796"><g data-name="Group 3795"><path d="M158.906 330.779c-.463 1.379-1.437 2.07-2.83 2.039-1.295-.03-2.267-.771-2.625-2.01-.02.015-.046.026-.05.042-.26 1.083-1.005 1.667-2.039 1.893-1.023.224-1.955-.009-2.73-.743-.339-.32-.569-.715-.623-1.184a1.165 1.165 0 0 1 .063-.56c.489-1.17.999-2.33 1.494-3.495.06-.14.126-.193.282-.193 6.037.004 12.073.004 18.11 0 .154 0 .224.048.284.19.492 1.159.986 2.317 1.498 3.466.12.27.105.522.026.78-.303.988-1.021 1.53-1.989 1.737-1.072.23-2.033-.02-2.817-.82-.302-.309-.476-.69-.587-1.118a2.448 2.448 0 0 1-1.115 1.559c-.57.359-1.198.5-1.865.45-1.24-.094-2.093-.786-2.487-2.033" fill="#0a3b4b" fill-rule="evenodd" data-name="Path 14218"/><path d="M149.539 343.738v-9.506c.772.198 1.535.2 2.335-.015v5.864c0 .432.117.55.549.55h12.96c.433 0 .551-.118.552-.548v-5.867c.78.213 1.543.218 2.324.018v9.504h-18.72Z" fill="#0a3b4b" fill-rule="evenodd" data-name="Path 14219"/></g><path d="M168.278 325h-18.734c-.005-.07-.013-.132-.013-.194-.001-.692-.003-1.383 0-2.075.002-.52.318-.845.83-.845 5.696-.001 11.391-.001 17.086 0 .5 0 .827.325.83.823.004.756.001 1.511.001 2.291" fill="#3b4044" fill-rule="evenodd" data-name="Path 14220"/></g></svg>