<svg id="Component_161_3" data-name="Component 161 – 3" xmlns="http://www.w3.org/2000/svg" width="63" height="63" viewBox="0 0 63 63">
  <g id="Ellipse_127" data-name="Ellipse 127" fill="#f6f6f6" stroke="#0b303e" stroke-width="0.5">
    <circle cx="31.5" cy="31.5" r="31.5" stroke="none"/>
    <circle cx="31.5" cy="31.5" r="31.25" fill="none"/>
  </g>
  <g id="Camera" transform="translate(20 20)">
    <path id="Path_13949" data-name="Path 13949" d="M0,0H24V24H0Z" fill="none"/>
    <path id="add_a_photo_FILL0_wght400_GRAD0_opsz24" d="M11,18.5A4.48,4.48,0,0,0,15.5,14,4.48,4.48,0,0,0,11,9.5,4.48,4.48,0,0,0,6.5,14,4.48,4.48,0,0,0,11,18.5ZM3,22a1.925,1.925,0,0,1-1.412-.587A1.927,1.927,0,0,1,1,20V8a1.923,1.923,0,0,1,.588-1.412A1.923,1.923,0,0,1,3,6H6.15L7.4,4.65a2.01,2.01,0,0,1,.662-.475A1.956,1.956,0,0,1,8.875,4H13a.981.981,0,0,1,1,1V8H3V20H19V11h1a1.038,1.038,0,0,1,.388.075.942.942,0,0,1,.537.537A1.038,1.038,0,0,1,21,12v8a2,2,0,0,1-2,2ZM19,6H18a.982.982,0,0,1-1-1,.982.982,0,0,1,1-1h1V3a1,1,0,1,1,2,0V4h1a.982.982,0,0,1,1,1,.982.982,0,0,1-1,1H21V7a1,1,0,1,1-2,0ZM3,8H3V20H3V8Z" fill="#0a3b4b"/>
  </g>
</svg>
