<svg width="55" height="48" viewBox="0 0 55 48" fill="none" xmlns="http://www.w3.org/2000/svg">
<path d="M28.867 12.0246C28.5611 11.9346 28.3869 11.6171 28.4781 11.3152C29.5408 7.79025 32.8506 5.20215 36.7888 5.20215C37.1079 5.20215 37.3668 5.45765 37.3668 5.77266C37.3668 6.08766 37.1079 6.34317 36.7888 6.34317C33.4881 6.34317 30.5263 8.52129 29.5858 11.6403C29.4954 11.9418 29.1742 12.115 28.8671 12.0246L28.867 12.0246Z" fill="#372753"/>
<path d="M44.8808 33.7273H41.413C41.0938 33.7273 40.835 33.4718 40.835 33.1568C40.835 32.8418 41.0938 32.5863 41.413 32.5863H44.8808C49.6612 32.5863 53.5506 28.7471 53.5506 24.0287C53.5506 19.3102 49.6612 15.4711 44.8808 15.4711H44.7974C44.6298 15.4711 44.4705 15.3994 44.3607 15.2743C44.2508 15.1492 44.2013 14.9833 44.2252 14.8195C44.2769 14.4642 44.3029 14.1072 44.3029 13.7596C44.3029 9.67034 40.9319 6.34302 36.789 6.34302C35.1772 6.34302 33.6402 6.84017 32.3438 7.78109C32.0589 7.98769 31.6544 7.89601 31.4896 7.5867C27.8182 0.686072 18.2288 -0.240613 13.2572 5.76234C11.1628 8.29129 10.34 11.5811 10.9993 14.7874C11.072 15.1415 10.7975 15.4716 10.4329 15.4716H10.2013C5.42099 15.4716 1.53152 19.3107 1.53152 24.0291C1.53152 28.7476 5.42099 32.5867 10.2013 32.5867H13.6692C13.9883 32.5867 14.2472 32.8422 14.2472 33.1572C14.2472 33.4722 13.9883 33.7277 13.6692 33.7277H10.2013C4.78347 33.7277 0.375488 29.3768 0.375488 24.0291C0.375488 18.8314 4.53943 14.5754 9.74759 14.3407C9.25836 11.0142 10.1939 7.65881 12.3621 5.04025C17.6849 -1.38729 27.8858 -0.666848 32.1979 6.50032C33.5735 5.64904 35.1477 5.20247 36.7888 5.20247C41.8082 5.20247 45.7856 9.41933 45.4376 14.346C50.5977 14.6317 54.7064 18.8652 54.7064 24.0287C54.7064 29.3768 50.2984 33.7273 44.8806 33.7273L44.8808 33.7273Z" fill="#372753"/>
<path d="M27.4633 47.0978C19.4957 47.0978 13.0134 40.6996 13.0134 32.835C13.0134 24.9706 19.4956 18.5723 27.4633 18.5723C35.431 18.5723 41.9131 24.9705 41.9131 32.835C41.9131 40.6995 35.431 47.0978 27.4633 47.0978ZM27.4633 19.7135C20.1332 19.7135 14.1697 25.6 14.1697 32.835C14.1697 40.0702 20.1333 45.9566 27.4633 45.9566C34.7932 45.9566 40.7569 40.0701 40.7569 32.835C40.7569 25.5999 34.7932 19.7135 27.4633 19.7135Z" fill="#372753"/>
<path d="M27.7283 38.994C27.4947 38.994 27.3052 38.807 27.3052 38.5764V27.7167C27.3052 27.4861 27.4947 27.2991 27.7283 27.2991C27.962 27.2991 28.1515 27.4861 28.1515 27.7167V38.5764C28.1515 38.8073 27.962 38.994 27.7283 38.994Z" fill="#372753"/>
<path d="M31.1145 31.4772C31.0063 31.4772 30.8978 31.4363 30.8153 31.3549L27.7293 28.3089L24.6433 31.3549C24.4783 31.5181 24.2102 31.5181 24.0449 31.3549C23.8796 31.1917 23.8796 30.9274 24.0449 30.7642L27.4301 27.4228C27.5951 27.2596 27.8632 27.2596 28.0285 27.4228L31.4137 30.7642C31.579 30.9274 31.579 31.1917 31.4137 31.3549C31.3312 31.4366 31.2227 31.4772 31.1145 31.4772H31.1145Z" fill="#372753"/>
</svg>
