<svg xmlns="http://www.w3.org/2000/svg" width="327.72" height="389.512" viewBox="0 0 81.93 97.378"><path d="M28.949 43.613c.162 2.033.583 3.63 1.786 5.14 1.586 1.992 2.805 4.275 4.01 6.162-1.754 1.902-3.4 3.824-5.19 5.6-2.957 2.939-5.99 5.806-9.032 8.656-.732.687-.533 1.111.062 1.71 3.961 3.991 7.894 8.011 11.848 12.009 2.41 2.436 4.836 4.855 7.267 7.27 1.096 1.088 1.386 1.096 2.475.017 4.684-4.64 9.344-9.304 14.045-13.925.616-.605 1.373-1.198 2.174-1.452 1.29-.408 2.59.247 3.27 1.344.716 1.159.639 2.533-.315 3.626-.807.924-1.693 1.78-2.567 2.645a4322.97 4322.97 0 0 1-12.475 12.32c-.448.44-.986.792-1.502 1.158-2.736 1.944-5.166 2.049-7.77-.098-2.635-2.173-5.106-4.56-7.522-6.98-4.712-4.714-9.344-9.509-13.99-14.29a19.69 19.69 0 0 1-1.926-2.312c-1.007-1.419-1.072-2.91-.036-4.353.519-.722 1.067-1.44 1.699-2.062 3.82-3.756 7.666-7.485 11.371-11.092-1.456-3.132-2.874-6.268-4.374-9.361-1.203-2.487-1.314-5.019-.46-7.587 1.23-3.707 2.375-7.474 5.274-10.333 2.326-2.294 4.885-4.397 7.935-5.49 4.432-1.586 8.957-1.705 13.245.778 4.35 2.52 8.116 5.633 9.858 10.529.974 2.74 2.17 5.459 2.028 8.5-.148 3.153-1.394 5.899-2.935 8.552-.637 1.095-1.363 2.136-1.963 3.249-.158.293-.16.923.04 1.12 3.538 3.464 7.118 6.886 10.692 10.314.05.046.133.056.361.149.567-.748 1.16-1.537 1.757-2.321 3.778-4.974 6.384-10.486 7.292-16.687 1.466-10.02-.955-19.06-7.342-26.938-5.556-6.855-12.704-11.256-21.443-12.606-17.002-2.628-34.74 7.151-39.436 26.24-2.198 8.933-1.001 17.406 3.614 25.383.24.416.46.852.642 1.296.731 1.8.307 3.202-1.19 4.002-1.549.83-3.093.443-4.146-1.182-2.114-3.27-3.769-6.78-4.68-10.563-3.481-14.435-.514-27.405 9.403-38.513C17.446 5.797 25.951 1.522 35.848.34c14.444-1.727 26.487 3.156 36.15 13.896 5.368 5.968 8.497 13.07 9.53 21.02 1.398 10.738-.808 20.641-7.304 29.446-2.383 3.231-4.793 6.443-7.28 9.783a8259.306 8259.306 0 0 1-4.667-4.458c-4.79-4.584-9.592-9.149-14.356-13.759-1.56-1.508-1.394-.995-.317-2.673 1.145-1.786 2.365-3.523 3.521-5.302.881-1.353 1.465-2.81 1.344-4.644-7.854.808-15.626.826-23.52-.036m5.417-13.665c-3.581.959-7.635 8.502-6.702 12.446 8.705 1.715 17.468.68 26.316.223 0-.5.04-.83-.006-1.152-.494-3.477-1.606-6.725-3.807-9.505-.562-.71-1.36-1.25-2.105-1.794-.55-.402-.97-.371-1.173.472-.37 1.536-.863 3.042-1.305 4.558-.04-1.804.197-3.561.338-5.326.104-1.296-.381-1.956-1.622-2.287-2.147-.575-4.313-.718-6.497-.15-2.131.553-2.538 1.216-2.174 3.341.323 1.895.535 3.809.796 5.716-.05.01-.1.018-.15.026-.63-2.166-1.26-4.331-1.909-6.568" fill="#fff" fill-rule="evenodd" data-name="Path 306"/></svg>